<?xml version="1.0" ?><svg enable-background="new 0 0 512 512" id="Layer_1" version="1.1" viewBox="0 0 512 512" xml:space="preserve" xmlns="http://www.w3.org/2000/svg" xmlns:xlink="http://www.w3.org/1999/xlink"><g><g><linearGradient gradientUnits="userSpaceOnUse" id="SVGID_1_" x1="-0.0000027" x2="512" y1="256" y2="256"><stop offset="0" style="stop-color:#F67950"/><stop offset="1" style="stop-color:#F15A29"/></linearGradient><circle cx="256" cy="256" fill="url(#SVGID_1_)" r="256"/><linearGradient gradientUnits="userSpaceOnUse" id="SVGID_2_" x1="42.6666641" x2="469.3333435" y1="256.0005188" y2="256.0005188"><stop offset="0" style="stop-color:#F15A29"/><stop offset="1" style="stop-color:#F67950"/></linearGradient><path d="M256,469.3338623c-117.6314697,0-213.3333435-95.7023926-213.3333435-213.3333435    c0-117.6314545,95.7018661-213.333313,213.3333435-213.333313c117.636261,0,213.3333435,95.7018661,213.3333435,213.333313    C469.3333435,373.6314697,373.636261,469.3338623,256,469.3338623z" fill="url(#SVGID_2_)"/></g><g><polygon opacity="0.3" points="259.8349915,182.7498627 229,152.7498627 144,152.7498627 144,213.9839935 384,213.9839935     384,182.7498627   "/><path d="M144,299v76.2496033h120h120V299v-75.0160065H144V299z M263.9985046,260.9295959l41.8750916,41.8725281    l-7.0704041,7.0709534l-29.8046875-29.8026733V355h-10v-74.9290771l-29.8000031,29.8021545l-7.0700226-7.0709534    L263.9985046,260.9295959z" opacity="0.3"/></g><g><polygon fill="#FFFFFF" points="251.8349915,174.7498627 221,144.7498627 136,144.7498627 136,205.9839935 376,205.9839935     376,174.7498627   "/><path d="M136,291v76.2496033h120h120V291v-75.0160065H136V291z M255.9985046,252.9295959l41.8750916,41.8725281    l-7.0706177,7.0709534l-29.8044739-29.8026733V347h-10v-74.9290771l-29.8000031,29.8021545l-7.0700226-7.0709534    L255.9985046,252.9295959z" fill="#FFFFFF"/></g></g></svg>